<svg width="1020" height="702" viewBox="0 0 1020 702" fill="none" xmlns="http://www.w3.org/2000/svg">
<path d="M1020 0H20C8.9543 0 0 8.95431 0 20V682C0 693.046 8.95431 702 20 702H1020V0Z" fill="#766DF1"/>
<path d="M829 480C829 543.237 777.737 594.5 714.5 594.5L600 594.5L600 480C600 416.763 651.263 365.5 714.5 365.5C777.737 365.5 829 416.763 829 480Z" fill="#FED67A"/>
<path d="M829 709C829 645.763 880.263 594.5 943.5 594.5L1058 594.5L1058 709C1058 772.237 1006.74 823.5 943.5 823.5C880.263 823.5 829 772.237 829 709Z" fill="#FED67A"/>
<path d="M600 709C600 772.237 651.263 823.5 714.5 823.5L829 823.5L829 709C829 645.763 777.737 594.5 714.5 594.5C651.263 594.5 600 645.763 600 709Z" fill="#FED67A"/>
<path d="M1058 480C1058 416.763 1006.74 365.5 943.5 365.5L829 365.5L829 480C829 543.237 880.263 594.5 943.5 594.5C1006.74 594.5 1058 543.237 1058 480Z" fill="#FED67A"/>
</svg>
