<svg width="103" height="24" viewBox="0 0 103 24" fill="none" xmlns="http://www.w3.org/2000/svg">
<path d="M22.2176 18L20.7456 6.8H22.8416L23.9296 16.528H24.2176L25.6256 6.8H29.2736L30.6816 16.528H30.9696L32.0576 6.8H34.1536L32.6816 18H29.0336L27.5936 8.048H27.3056L25.8656 18H22.2176ZM39.2829 18.224C38.4935 18.224 37.7949 18.0587 37.1869 17.728C36.5895 17.3867 36.1202 16.912 35.7789 16.304C35.4482 15.6853 35.2829 14.96 35.2829 14.128V13.936C35.2829 13.104 35.4482 12.384 35.7789 11.776C36.1095 11.1573 36.5735 10.6827 37.1709 10.352C37.7682 10.0107 38.4615 9.84 39.2509 9.84C40.0295 9.84 40.7069 10.016 41.2829 10.368C41.8589 10.7093 42.3069 11.1893 42.6269 11.808C42.9469 12.416 43.1069 13.1253 43.1069 13.936V14.624H37.3309C37.3522 15.168 37.5549 15.6107 37.9389 15.952C38.3229 16.2933 38.7922 16.464 39.3469 16.464C39.9122 16.464 40.3282 16.3413 40.5949 16.096C40.8615 15.8507 41.0642 15.5787 41.2029 15.28L42.8509 16.144C42.7015 16.4213 42.4829 16.7253 42.1949 17.056C41.9175 17.376 41.5442 17.6533 41.0749 17.888C40.6055 18.112 40.0082 18.224 39.2829 18.224ZM37.3469 13.12H41.0589C41.0162 12.6613 40.8295 12.2933 40.4989 12.016C40.1789 11.7387 39.7575 11.6 39.2349 11.6C38.6909 11.6 38.2589 11.7387 37.9389 12.016C37.6189 12.2933 37.4215 12.6613 37.3469 13.12ZM49.6693 18.224C48.9546 18.224 48.4053 18.1013 48.0213 17.856C47.6373 17.6107 47.3546 17.3387 47.1733 17.04H46.8853V18H44.9013V6.8H46.9173V10.976H47.2053C47.3226 10.784 47.4773 10.6027 47.6693 10.432C47.8719 10.2613 48.1333 10.1227 48.4533 10.016C48.7839 9.89867 49.1893 9.84 49.6693 9.84C50.3093 9.84 50.9013 10 51.4453 10.32C51.9893 10.6293 52.4266 11.088 52.7573 11.696C53.0879 12.304 53.2533 13.04 53.2533 13.904V14.16C53.2533 15.024 53.0879 15.76 52.7573 16.368C52.4266 16.976 51.9893 17.44 51.4453 17.76C50.9013 18.0693 50.3093 18.224 49.6693 18.224ZM49.0613 16.464C49.6799 16.464 50.1973 16.2667 50.6133 15.872C51.0293 15.4667 51.2373 14.88 51.2373 14.112V13.952C51.2373 13.184 51.0293 12.6027 50.6133 12.208C50.2079 11.8027 49.6906 11.6 49.0613 11.6C48.4426 11.6 47.9253 11.8027 47.5093 12.208C47.0933 12.6027 46.8853 13.184 46.8853 13.952V14.112C46.8853 14.88 47.0933 15.4667 47.5093 15.872C47.9253 16.2667 48.4426 16.464 49.0613 16.464ZM58.8804 18.224C58.091 18.224 57.3817 18.064 56.7524 17.744C56.123 17.424 55.627 16.96 55.2644 16.352C54.9017 15.744 54.7204 15.0133 54.7204 14.16V13.904C54.7204 13.0507 54.9017 12.32 55.2644 11.712C55.627 11.104 56.123 10.64 56.7524 10.32C57.3817 10 58.091 9.84 58.8804 9.84C59.6697 9.84 60.379 10 61.0084 10.32C61.6377 10.64 62.1337 11.104 62.4964 11.712C62.859 12.32 63.0404 13.0507 63.0404 13.904V14.16C63.0404 15.0133 62.859 15.744 62.4964 16.352C62.1337 16.96 61.6377 17.424 61.0084 17.744C60.379 18.064 59.6697 18.224 58.8804 18.224ZM58.8804 16.432C59.499 16.432 60.011 16.2347 60.4164 15.84C60.8217 15.4347 61.0244 14.8587 61.0244 14.112V13.952C61.0244 13.2053 60.8217 12.6347 60.4164 12.24C60.0217 11.8347 59.5097 11.632 58.8804 11.632C58.2617 11.632 57.7497 11.8347 57.3444 12.24C56.939 12.6347 56.7364 13.2053 56.7364 13.952V14.112C56.7364 14.8587 56.939 15.4347 57.3444 15.84C57.7497 16.2347 58.2617 16.432 58.8804 16.432ZM64.8372 18V6.8H66.9493V11.248H67.2373L70.8693 6.8H73.5733L68.9013 12.32L73.7333 18H70.9493L67.2373 13.456H66.9493V18H64.8372ZM74.9169 18V10.064H76.9009V10.96H77.1889C77.3062 10.64 77.4982 10.4053 77.7649 10.256C78.0422 10.1067 78.3622 10.032 78.7249 10.032H79.6849V11.824H78.6929C78.1809 11.824 77.7595 11.9627 77.4289 12.24C77.0982 12.5067 76.9329 12.9227 76.9329 13.488V18H74.9169ZM83.5371 18.224C82.9718 18.224 82.4651 18.128 82.0171 17.936C81.5691 17.7333 81.2118 17.4453 80.9451 17.072C80.6891 16.688 80.5611 16.224 80.5611 15.68C80.5611 15.136 80.6891 14.6827 80.9451 14.32C81.2118 13.9467 81.5745 13.6693 82.0331 13.488C82.5025 13.296 83.0358 13.2 83.6331 13.2H85.8091V12.752C85.8091 12.3787 85.6918 12.0747 85.4571 11.84C85.2225 11.5947 84.8491 11.472 84.3371 11.472C83.8358 11.472 83.4625 11.5893 83.2171 11.824C82.9718 12.048 82.8118 12.3413 82.7371 12.704L80.8811 12.08C81.0091 11.6747 81.2118 11.3067 81.4891 10.976C81.7771 10.6347 82.1558 10.3627 82.6251 10.16C83.1051 9.94667 83.6865 9.84 84.3691 9.84C85.4145 9.84 86.2411 10.1013 86.8491 10.624C87.4571 11.1467 87.7611 11.904 87.7611 12.896V15.856C87.7611 16.176 87.9105 16.336 88.2091 16.336H88.8491V18H87.5051C87.1105 18 86.7851 17.904 86.5291 17.712C86.2731 17.52 86.1451 17.264 86.1451 16.944V16.928H85.8411C85.7985 17.056 85.7025 17.2267 85.5531 17.44C85.4038 17.6427 85.1691 17.824 84.8491 17.984C84.5291 18.144 84.0918 18.224 83.5371 18.224ZM83.8891 16.592C84.4545 16.592 84.9131 16.4373 85.2651 16.128C85.6278 15.808 85.8091 15.3867 85.8091 14.864V14.704H83.7771C83.4038 14.704 83.1105 14.784 82.8971 14.944C82.6838 15.104 82.5771 15.328 82.5771 15.616C82.5771 15.904 82.6891 16.1387 82.9131 16.32C83.1371 16.5013 83.4625 16.592 83.8891 16.592ZM91.057 18V11.728H89.041V10.064H91.057V8.592C91.057 8.048 91.217 7.616 91.537 7.296C91.8677 6.96533 92.2943 6.8 92.817 6.8H94.897V8.464H93.521C93.2223 8.464 93.073 8.624 93.073 8.944V10.064H95.153V11.728H93.073V18H91.057ZM99.5975 18C99.0748 18 98.6482 17.84 98.3175 17.52C97.9975 17.1893 97.8375 16.752 97.8375 16.208V11.728H95.8535V10.064H97.8375V7.6H99.8535V10.064H102.03V11.728H99.8535V15.856C99.8535 16.176 100.003 16.336 100.302 16.336H101.838V18H99.5975Z" fill="#212121"/>
<path d="M7.5 8.75C7.5 10.8211 5.82107 12.5 3.75 12.5L4.17204e-08 12.5L2.08602e-08 8.75C9.33942e-09 6.67893 1.67893 5 3.75 5C5.82107 5 7.5 6.67893 7.5 8.75Z" fill="#766DF1"/>
<path d="M7.5 16.25C7.5 14.1789 9.17893 12.5 11.25 12.5L15 12.5L15 16.25C15 18.3211 13.3211 20 11.25 20C9.17893 20 7.5 18.3211 7.5 16.25Z" fill="#766DF1"/>
<path d="M2.08602e-08 16.25C3.2381e-08 18.3211 1.67893 20 3.75 20L7.5 20L7.5 16.25C7.5 14.1789 5.82107 12.5 3.75 12.5C1.67893 12.5 9.33943e-09 14.1789 2.08602e-08 16.25Z" fill="#766DF1"/>
<path d="M15 8.75C15 6.67893 13.3211 5 11.25 5L7.5 5L7.5 8.75C7.5 10.8211 9.17893 12.5 11.25 12.5C13.3211 12.5 15 10.8211 15 8.75Z" fill="#766DF1"/>
</svg>
