<svg width="1440" height="280" viewBox="0 0 1440 280" fill="none" xmlns="http://www.w3.org/2000/svg">
<mask id="mask0_105_6984" style="mask-type:alpha" maskUnits="userSpaceOnUse" x="0" y="0" width="1440" height="280">
<path d="M0 280H1440V0H0V280Z" fill="#766DF1"/>
</mask>
<g mask="url(#mask0_105_6984)">
<path d="M0 280H1440V0H0V280Z" fill="#766DF1"/>
<path d="M1198 4C1198 43.2122 1166.21 75 1127 75L1056 75L1056 4C1056 -35.2123 1087.79 -67 1127 -67C1166.21 -67 1198 -35.2123 1198 4Z" fill="#55BB87"/>
<path d="M1198 146C1198 106.788 1229.79 75 1269 75L1340 75L1340 146C1340 185.212 1308.21 217 1269 217C1229.79 217 1198 185.212 1198 146Z" fill="#55BB87"/>
<path d="M1056 146C1056 185.212 1087.79 217 1127 217L1198 217L1198 146C1198 106.788 1166.21 75 1127 75C1087.79 75 1056 106.788 1056 146Z" fill="#55BB87"/>
<path d="M1340 4C1340 -35.2123 1308.21 -67 1269 -67L1198 -67L1198 4C1198 43.2122 1229.79 75 1269 75C1308.21 75 1340 43.2122 1340 4Z" fill="#55BB87"/>
</g>
</svg>
