<svg width="56" height="56" viewBox="0 0 56 56" fill="none" xmlns="http://www.w3.org/2000/svg">
<rect width="56" height="56" rx="28" fill="#FEF1F1"/>
<path d="M36 23V33C36 37 35 38 31 38H25C21 38 20 37 20 33V23C20 19 21 18 25 18H31C35 18 36 19 36 23Z" stroke="#FE827A" stroke-width="1.5" stroke-linecap="round" stroke-linejoin="round"/>
<path d="M30 21.5H26" stroke="#FE827A" stroke-width="1.5" stroke-linecap="round" stroke-linejoin="round"/>
<path d="M27.9992 35.1C28.8553 35.1 29.5492 34.406 29.5492 33.55C29.5492 32.694 28.8553 32 27.9992 32C27.1432 32 26.4492 32.694 26.4492 33.55C26.4492 34.406 27.1432 35.1 27.9992 35.1Z" stroke="#FE827A" stroke-width="1.5" stroke-linecap="round" stroke-linejoin="round"/>
</svg>
