<svg width="56" height="56" viewBox="0 0 56 56" fill="none" xmlns="http://www.w3.org/2000/svg">
<rect width="56" height="56" rx="28" fill="#FEF1FB"/>
<path d="M31.0301 26.77L36.6901 22.98C37.2601 22.6 37.4101 21.82 37.0301 21.26L35.2101 18.55C34.8301 17.98 34.0501 17.83 33.4901 18.21L27.8301 22L31.0301 26.77Z" stroke="#FE7AC9" stroke-width="1.5" stroke-linecap="round" stroke-linejoin="round"/>
<path d="M28.1742 22.4792L23.3965 25.6791L25.9564 29.5012L30.7341 26.3013L28.1742 22.4792Z" stroke="#FE7AC9" stroke-width="1.5" stroke-linecap="round" stroke-linejoin="round"/>
<path d="M21.8305 31.8999L25.7805 29.2599L23.5405 25.9199L19.5905 28.5599C19.1305 28.8699 19.0105 29.4899 19.3205 29.9499L20.4505 31.6299C20.7505 32.0799 21.3705 32.1999 21.8305 31.8999Z" stroke="#FE7AC9" stroke-width="1.5" stroke-linecap="round" stroke-linejoin="round"/>
<path d="M28.0506 28.2L23.5605 37.9999" stroke="#FE7AC9" stroke-width="1.5" stroke-linecap="round" stroke-linejoin="round"/>
<path d="M28 28.2L32.44 37.9999" stroke="#FE7AC9" stroke-width="1.5" stroke-linecap="round" stroke-linejoin="round"/>
</svg>
