<svg width="30" height="24" viewBox="0 0 30 24" fill="none" xmlns="http://www.w3.org/2000/svg">
<path d="M27.3034 1.94118C28.9888 3.88235 30 6 30 9.52941C30 15.7059 25.7865 21.1765 19.8876 24L18.3708 21.7059C23.9326 18.5294 25.1124 14.4706 25.4494 11.8235C24.6067 12.3529 23.427 12.5294 22.2472 12.3529C19.2135 12 16.8539 9.52941 16.8539 6.17647C16.8539 4.58824 17.5281 3 18.5393 1.76471C19.7191 0.529412 21.0674 0 22.7528 0C24.6067 0 26.2921 0.882354 27.3034 1.94118ZM10.4494 1.94118C12.1348 3.88235 13.1461 6 13.1461 9.52941C13.1461 15.7059 8.93258 21.1765 3.03371 24L1.51685 21.7059C7.07865 18.5294 8.25843 14.4706 8.59551 11.8235C7.75281 12.3529 6.57303 12.5294 5.39326 12.3529C2.35955 12 0 9.35294 0 6.17647C0 4.58824 0.674157 3 1.68539 1.76471C2.86517 0.529412 4.21348 0 5.89888 0C7.75281 0 9.4382 0.882354 10.4494 1.94118Z" fill="#FED67A"/>
</svg>
